<svg width="42" height="42" viewBox="0 0 42 42" fill="none" xmlns="http://www.w3.org/2000/svg">
<path d="M36.2104 5.37988H6.75129C6.04283 5.37988 5.47046 5.95225 5.47046 6.66071V36.1198C5.47046 36.8283 6.04283 37.4007 6.75129 37.4007H36.2104C36.9189 37.4007 37.4912 36.8283 37.4912 36.1198V6.66071C37.4912 5.95225 36.9189 5.37988 36.2104 5.37988ZM32.512 14.7259H29.9543C27.949 14.7259 27.5608 15.6786 27.5608 17.0795V20.1655H32.3479L31.7235 24.9966H27.5608V37.4007H22.5696V25.0006H18.3948V20.1655H22.5696V16.6032C22.5696 12.4685 25.0952 10.215 28.7856 10.215C30.5547 10.215 32.0717 10.3471 32.516 10.4071V14.7259H32.512Z" fill="#FA4A0C"/>
</svg>
