<svg width="41" height="42" viewBox="0 0 41 42" fill="none" xmlns="http://www.w3.org/2000/svg">
<path d="M37.145 11.0754C35.9202 11.6038 34.5873 11.984 33.2144 12.1321C34.6398 11.2853 35.7072 9.9475 36.2164 8.36967C34.8788 9.16535 33.4136 9.72329 31.8855 10.0187C31.2469 9.33601 30.4745 8.79211 29.6165 8.42094C28.7585 8.04977 27.8332 7.85928 26.8983 7.86134C23.1159 7.86134 20.0739 10.9273 20.0739 14.6898C20.0739 15.2181 20.1379 15.7465 20.242 16.2548C14.5783 15.9586 9.52705 13.2528 6.16887 9.11015C5.55697 10.1553 5.23632 11.3453 5.24026 12.5564C5.24026 14.9259 6.44505 17.0153 8.28224 18.2441C7.19955 18.2014 6.14222 17.9039 5.19624 17.3755V17.4596C5.19624 20.7777 7.54176 23.5275 10.6678 24.1599C10.0808 24.3124 9.47704 24.3904 8.87062 24.3921C8.42633 24.3921 8.00606 24.348 7.58178 24.288C8.44634 26.9938 10.964 28.959 13.9619 29.0231C11.6164 30.8603 8.67849 31.941 5.48843 31.941C4.91605 31.941 4.38771 31.921 3.83936 31.8569C6.86532 33.7982 10.4556 34.9189 14.3222 34.9189C26.8743 34.9189 33.7428 24.5202 33.7428 15.4943C33.7428 15.1981 33.7428 14.9019 33.7227 14.6057C35.0516 13.6331 36.2164 12.4283 37.145 11.0754Z" fill="#FA4A0C"/>
</svg>
